<svg xmlns="http://www.w3.org/2000/svg" width="101.455" height="74.994" viewBox="0 0 101.455 74.994"><g transform="translate(0.024)"><g transform="translate(-0.024)"><path d="M97.864,49.286A5.892,5.892,0,0,1,94.1,54.763a9.573,9.573,0,0,0,.6-10.393A5.882,5.882,0,0,1,97.864,49.286Zm1.6-2.819a8.325,8.325,0,0,1-.809,7.56,4.23,4.23,0,0,0,2.774-3.883,4.42,4.42,0,0,0-1.966-3.677Zm-86.3-22.3c-.1,6.035-.215,12.276-.115,17.744a16.8,16.8,0,0,0,.553,4.425A2.5,2.5,0,0,0,16.5,48.072c1.943-.317,2.844-2.09,3.257-3.52a16.574,16.574,0,0,0,.546-3.071,188.111,188.111,0,0,0,.683-24.795c0-.063-.006-.139-.007-.216,0-.1-.006-.216-.012-.3l-.01-.118.116-.02c1.367-.236,2.262-.389,3.387-.559,1.474-.221,2.977-.422,4.427-.615l.392-.053c.37-.05.743-.092,1.112-.133.66-.075,1.342-.152,2-.271A2.213,2.213,0,0,0,34.31,13.01a2.769,2.769,0,0,0,.045-1.138,3.261,3.261,0,0,0-1.15-1.959A6.183,6.183,0,0,0,29.2,8.739a35.977,35.977,0,0,0-6.505.379c-1.551.188-4.7.864-6.107,1.23-.789.2-3.68,1.011-5.514,1.665-1.755.622-4.934,1.795-6.505,2.456a18.793,18.793,0,0,0-3.083,1.561A3.76,3.76,0,0,0,.127,17.5a1.234,1.234,0,0,0,.028,1.243,2.1,2.1,0,0,0,1.5.774,14.313,14.313,0,0,0,4.112-.334l.389-.069c.924-.161,1.58-.3,2.276-.452.321-.069.648-.14,1.011-.214s.683-.145,1.023-.218c.795-.175,1.618-.354,2.65-.518l.153-.024v.154C13.242,19.918,13.205,22.035,13.168,24.164ZM47.333,58.375a18.329,18.329,0,0,1,.117,10.734c-1.448,4.449-5.024,6.619-9.333,5.662a7.837,7.837,0,0,1-5.41-4.908,17.161,17.161,0,0,1-.933-8.142,15.231,15.231,0,0,1,3.285-8.358,5.889,5.889,0,0,1,3.812-2.507,4.166,4.166,0,0,1,.668-.056,3.154,3.154,0,0,1,2.783,1.478l.06.107.11-.054c1.484-.719,2.787,1.112,2.932,1.325A18.688,18.688,0,0,1,47.333,58.375Zm-5.242.763A7.045,7.045,0,0,0,40.547,56.4l-.1-.082-.081.1a11.109,11.109,0,0,0-1.878,6.244,13.5,13.5,0,0,0,.4,4.177c.023.086.566,2.116,1.5,2.46a.888.888,0,0,0,.4.1.91.91,0,0,0,.35-.073,2.833,2.833,0,0,0,1.235-1.674,9.566,9.566,0,0,0,.511-3.008A16.442,16.442,0,0,0,42.091,59.138ZM27.658,67.972a5.026,5.026,0,0,0-1.127.847c-.19.171-.368.331-.54.462-.02.015-.038.032-.058.05s-.037.035-.058.052a2.851,2.851,0,0,1-2.18.692,2.61,2.61,0,0,1-1.756-1.056,7.622,7.622,0,0,1-1.207-3.426,15.073,15.073,0,0,1-.166-3.463,17.08,17.08,0,0,1,1.171-5.611h0c.326-.764.935-1.487,1.657-1.227.767.276,1.05,1.463,1.256,2.325l.068.284c.253,1.057.567,2.37,1.337,2.9a1.679,1.679,0,0,0,1.517.189,1.854,1.854,0,0,0,1.1-1.238,8.635,8.635,0,0,0,.132-4.232,5.93,5.93,0,0,0-3.222-4.235,7.19,7.19,0,0,0-2.921-.616A8.83,8.83,0,0,0,15.8,54.283a14.116,14.116,0,0,0-2.764,8.806A15.447,15.447,0,0,0,15.1,70.672a8.168,8.168,0,0,0,7.345,4.044,7.865,7.865,0,0,0,5.738-2.708c.846-1.071,1.314-2.952.664-3.867C28.563,67.767,28.207,67.718,27.658,67.972Zm32.265-31.23c.133,1.238.249,2.307.411,3.244.607,3.509,1.67,5.838,3.235,7.12a4.96,4.96,0,0,0,3.134,1.1h.008a3.742,3.742,0,0,0,2.749-1.067A3.374,3.374,0,0,0,70.27,44.5a33.606,33.606,0,0,0-.822-4.874c-.2-.928-.41-1.888-.584-2.871-.658-3.71-.967-5.533-1.392-9.867a103.705,103.705,0,0,1-.506-12.124C67.048,9.706,67.356,4.418,69.033,0a8.322,8.322,0,0,0-1.554.809A13.219,13.219,0,0,0,63.4,5.829c-1.858,3.617-2.932,7.723-3.471,13.313a87.5,87.5,0,0,0-.073,16.933Zm-29.2,10.892a5.232,5.232,0,0,1-5.015-3.25,14.578,14.578,0,0,1-1.155-8.264A17.507,17.507,0,0,1,28,26.573l.029-.036c.087-.111.231-.3.3-.381,1.135-1.267,2.634-2.605,4.608-2.605a4.853,4.853,0,0,1,1.572.273l.116.039.045-.113a3.057,3.057,0,0,1,1.507-1.9,2.649,2.649,0,0,1,2.123.333,7,7,0,0,1,3.837,5.277,78.612,78.612,0,0,1,1.028,8.11c.09.99.181,1.984.286,2.985.047.435.093.86.14,1.284.148,1.342.287,2.608.386,4.058.121,1.754-.178,2.949-2.035,3.482a2.572,2.572,0,0,1-3.494-1.719,20.6,20.6,0,0,1-.755-2.245c-.055-.2-.114-.4-.181-.627l-.028-.091-.092-.006c-.109-.011-.128.076-.148.123a10.654,10.654,0,0,1-.757,1.357A7.189,7.189,0,0,1,30.719,47.634Zm4.747-11.853c.388-1.945.58-4.607-.154-5.708a1.038,1.038,0,0,0-.662-.476c-.708-.143-1.5.331-2.154,1.3a12.219,12.219,0,0,0-1.69,5.341c-.21,2.084-.009,4.614,1.246,4.891h0a1.147,1.147,0,0,0,.21.02C33.528,41.149,34.821,39.005,35.466,35.781Zm41.188.864c.426.441.91.94,1.532,1.613a7.949,7.949,0,0,1,1.862,2.8,1.632,1.632,0,0,1-.132,1.472,1.426,1.426,0,0,1-.91.515c-.969.088-1.938-.691-2.966-2.381-.191-.313-.888-1.348-1.814-1.438-.046,0-.089-.006-.133-.006a1.1,1.1,0,0,0-.432.086,1.261,1.261,0,0,0-.55.473,2.433,2.433,0,0,0-.261,1.544A7.566,7.566,0,0,0,75.1,46.18a9.016,9.016,0,0,0,10.9.389c2.883-2.33,2.831-6.352,1.308-8.952a14.6,14.6,0,0,0-2.963-3.329c-.337-.3-.682-.624-1.011-.942-1.565-1.524-3.063-3.2-3.438-5.121a3.5,3.5,0,0,1,.035-2.089,1.146,1.146,0,0,1,1-.725,1.539,1.539,0,0,1,1.024.337,6.525,6.525,0,0,1,1.332,1.465c.742.979,1.43,1.112,1.871,1.054a1.582,1.582,0,0,0,1.213-.987,3.172,3.172,0,0,0-.248-2.672,6.445,6.445,0,0,0-3.455-3.451,6.246,6.246,0,0,0-2.787-.506,7.681,7.681,0,0,0-5.815,2.837c-2.558,3.367-2.053,7.987,1.284,11.776.432.478.837.9,1.307,1.381ZM51.441,47.712a7.245,7.245,0,0,0,1.6-.318,3.838,3.838,0,0,0,2.637-3.533,25.672,25.672,0,0,0,.115-3.52c-.1-3.582-.207-7.285-.666-10.97a8.307,8.307,0,0,0-2.619-5.46,5.723,5.723,0,0,0-3.283-1.424h-.1a1.978,1.978,0,0,0-1.451.506,2.483,2.483,0,0,0-.591,1.867c.018,1.69.128,3.8.255,6.241l.049.933c.1,1.921.174,3.448.233,4.681.085,1.742.142,2.894.2,3.741s.181,2.427.368,3.607C48.509,46.041,49.123,47.857,51.441,47.712Zm39.526,2.537A7.44,7.44,0,0,1,83.872,53.6a6.979,6.979,0,0,1-3.29-1.232c-.5-.3-1.065-.63-1.795-1a4.888,4.888,0,0,0-3.982-.3,7.245,7.245,0,0,0-3.849,4.347c-.539,1.329-1.14,3.255-1.147,3.275,0,0-.338,1.021-.75,2.3l-.152.471-.1-.485c-.086-.425-.1-.548-.121-.69-.026-.2-.056-.418-.291-1.56a17.443,17.443,0,0,0-2.04-5.606A5.782,5.782,0,0,0,62.441,50.2a3.8,3.8,0,0,0-3.17,1.175,14.592,14.592,0,0,0-3.1,6.324l-.2.751-.051-.777a11.817,11.817,0,0,0-.694-3.185,3.606,3.606,0,0,0-2.149-2.347,1.886,1.886,0,0,0-.43-.051,1.517,1.517,0,0,0-1.016.379A2.571,2.571,0,0,0,51,54.706c.064.655.126,1.147.187,1.618.124.991.243,1.921.378,4.2.181,3.046.209,5.359.236,7.6.014,1.222.028,2.378.066,3.64a2.805,2.805,0,0,0,1.472,2.681,2.762,2.762,0,0,0,1.795.175c1.728-.445,2.52-1.532,3.023-4.153q.258-1.344.5-2.55c.3-1.549.566-2.887.775-4.083a27.268,27.268,0,0,1,1.314-5.156c.359-.779.756-.9,1.026-.874.582.068,1.112.91,1.37,2.2.282.91.643,2.892.962,4.641.486,2.7.689,3.592,1.006,4.866.592,2.41,1.651,3.113,2.433,3.276,1.2.254,2.9.221,3.809-2.988.235-.829.427-1.5.591-2.083.62-2.167.875-3.063,1.654-6.1a13.664,13.664,0,0,1,.664-2.05,1.172,1.172,0,0,1,1.011-.822.816.816,0,0,1,.733.569,12.6,12.6,0,0,1,.165,3.971c-.031.816-.068,1.741-.072,2.682,0,.772-.015,1.465-.025,2.095a21.466,21.466,0,0,0,.186,4.455,2.191,2.191,0,0,0,1.269,1.648,3.119,3.119,0,0,0,2.95-.225,3.755,3.755,0,0,0,1.7-3.178c.023-.8.053-1.61.081-2.427.075-2.13.153-4.332.134-6.471.018-.881.066-2.96.1-3.378l.01-.124.125.006c3.026.151,5.182-.523,6.988-2.18a9.684,9.684,0,0,0,2.559-3.842,12.044,12.044,0,0,0,.43-6.325A9.046,9.046,0,0,1,90.966,50.249ZM8.531,68.921a3.3,3.3,0,0,0-2.163,1.364A2.966,2.966,0,0,0,6,72.581c.314,1.517,1.1,2.068,2.555,1.793A4.4,4.4,0,0,0,11.5,72.8a2.386,2.386,0,0,0,.312-1.876A2.481,2.481,0,0,0,8.531,68.921ZM51.163,19.935c1.639.279,2.514-.361,2.831-2.073a3.33,3.33,0,0,0-.465-2.573,3.722,3.722,0,0,0-2.46-1.485,4.741,4.741,0,0,0-.851-.083,2.669,2.669,0,0,0-2.79,2.405,2.686,2.686,0,0,0,.394,2.1A4.957,4.957,0,0,0,51.163,19.935Z" transform="translate(0.024)" fill="#040e2b"/><path d="M873.021,233.263h-.653v1.759h-.291v-1.759h-.666V233h1.618Zm2.584,1.759h-.293v-1.7H875.3l-.683,1.7h-.191l-.681-1.7h-.01v1.7h-.294V233h.454l.633,1.55.635-1.55h.441Z" transform="translate(-783.304 -209.443)" fill="#040e2b"/></g></g></svg>